PathFileType	4	(X/Y/Z)	D:\Share\Shared_Data\Ergonomics\Sit To Stand Pertubation\S2\Unperturbed.trc
DataRate	CameraRate	NumFrames	NumMarkers	Units	OrigDataRate	OrigDataStartFrame	OrigNumFrames	
100	100	6	18	m	100	4461	241
Frame#	Time	R_Toe			R_ASIS			R_Pelvis			V_Sacral			L_Pelvis			L_ASIS			Clavical			R_Acromium			L_Acromium			Sternum			Torso			R_Thigh_Med			R_Thigh_Lat			R_Thigh			R_Shank_Med			R_Shank_Lat			R_Shank			R_Heel			
		X1	Y1	Z1	X2	Y2	Z2	X3	Y3	Z3	X4	Y4	Z4	X5	Y5	Z5	X6	Y6	Z6	X7	Y7	Z7	X8	Y8	Z8	X9	Y9	Z9	X10	Y10	Z10	X11	Y11	Z11	X12	Y12	Z12	X13	Y13	Z13	X14	Y14	Z14	X15	Y15	Z15	X16	Y16	Z16	X17	Y17	Z17	X18	Y18	Z18	

4461	44.6	0.44244769	0.065397354	0.14785342	-0.016550301	0.64598749	0.1390255	-0.095713257	0.63610669	0.17915427	-0.22199438	0.5660816	0.021862488	-0.13657729	0.62913763	-0.15939154	-0.043771568	0.65243335	-0.13083154	-0.005470911	1.0264832	0.0042621727	-0.096537369	1.0489131	0.2097561	-0.1118615	1.0555878	-0.17845827	0.036044846	0.86645728	0.0018953822	0.00010434411	0.98440125	-0.11176461	0.39266641	0.50195126	0.11896691	0.36388974	0.50956863	0.2228817	0.20370349	0.62197644	0.17021535	0.30693582	0.10997777	0.11195419	0.28728094	0.1027561	0.20438863	0.35222638	0.35861176	0.2381884	0.20453398	0.062920586	0.15262799
4462	44.61	0.44246271	0.065386635	0.14784923	-0.01640572	0.64593622	0.13908615	-0.095621628	0.63610797	0.1791868	-0.22187466	0.56623901	0.021835815	-0.13633389	0.62921924	-0.15938699	-0.043513905	0.65240338	-0.13078745	-0.0047486758	1.0263679	0.0042879276	-0.095848572	1.0489469	0.20974841	-0.11104269	1.0555815	-0.17846622	0.036549297	0.86628607	0.0019579302	0.00080689079	0.98426251	-0.11172189	0.39268585	0.50197357	0.11922806	0.36387173	0.50955563	0.22314372	0.20369978	0.62195514	0.17042607	0.30696396	0.10997569	0.11193154	0.28729803	0.10278231	0.20434967	0.3521933	0.35857391	0.23835347	0.20455426	0.062946819	0.15260092
4463	44.62	0.44247809	0.06537635	0.14784477	-0.016257265	0.6458924	0.13914726	-0.095520355	0.63611475	0.17922005	-0.22175987	0.56639447	0.021814722	-0.136095	0.62929803	-0.15938728	-0.043259506	0.65236865	-0.13074039	-0.0039992485	1.0262499	0.0043126526	-0.095134407	1.0489883	0.20973926	-0.11019145	1.0555787	-0.17847156	0.037072021	0.8661084	0.002021528	0.0015384086	0.98412262	-0.11167999	0.39270438	0.50200027	0.11949207	0.36384525	0.50954462	0.22341107	0.20368863	0.62193616	0.17063544	0.30699258	0.10997544	0.11191103	0.28731464	0.10280911	0.20431261	0.35214957	0.35854025	0.23852737	0.204575	0.062973648	0.15257133
4464	44.63	0.44249405	0.065366135	0.1478412	-0.016105446	0.64585254	0.13920821	-0.095404076	0.63612708	0.17925076	-0.22164973	0.5665459	0.021800716	-0.13586206	0.62937549	-0.15939133	-0.043009819	0.65233203	-0.13069125	-0.0032215908	1.0261296	0.0043389935	-0.094394165	1.049037	0.20972853	-0.10930524	1.0555779	-0.17847554	0.037614376	0.86592395	0.0020899236	0.0023006809	0.98397931	-0.11163933	0.39272485	0.50203311	0.11975893	0.36381058	0.50953711	0.22368272	0.20367055	0.62192114	0.17084377	0.30702151	0.10997748	0.11189307	0.28733093	0.10283666	0.20427834	0.35209656	0.35851224	0.23870952	0.2045959	0.063001236	0.15253949
4465	44.64	0.44251062	0.065355789	0.14783952	-0.015951931	0.64581201	0.13926805	-0.0952687	0.63614484	0.17927534	-0.22154475	0.56669189	0.021794567	-0.13563663	0.6294541	-0.15939702	-0.042766758	0.6522951	-0.13064195	-0.0024139044	1.026007	0.0043694186	-0.093627075	1.0490919	0.20971559	-0.10838151	1.0555776	-0.17848112	0.038177013	0.86573224	0.0021653745	0.0030950799	0.98383057	-0.1116004	0.39274661	0.50207239	0.1200296	0.36376764	0.509534	0.22395851	0.20364574	0.62191156	0.17105243	0.30705032	0.10998201	0.1118781	0.28734671	0.10286501	0.20424747	0.35203574	0.35848999	0.23889644	0.20461633	0.063029514	0.15250551
4466	44.65	0.44252747	0.065345413	0.14784015	-0.015798401	0.64576581	0.13932587	-0.095111885	0.63616772	0.17929079	-0.22144629	0.56683228	0.021796324	-0.13542059	0.62953687	-0.15940178	-0.042532589	0.65225873	-0.13059538	-0.0015738015	1.0258818	0.0044047894	-0.092831741	1.049151	0.20969972	-0.10741765	1.055577	-0.17849248	0.038761017	0.86553339	0.0022483475	0.0039226673	0.98367468	-0.11156338	0.39276608	0.50211758	0.12030541	0.36371652	0.50953519	0.22423839	0.20361426	0.62190826	0.17126341	0.30707822	0.10998893	0.11186678	0.28736166	0.10289394	0.2042205	0.35196869	0.35847263	0.23908202	0.20463577	0.063058071	0.15246973
